<?xml version="1.0" standalone="no"?><!DOCTYPE svg PUBLIC "-//W3C//DTD SVG 1.1//EN" "http://www.w3.org/Graphics/SVG/1.1/DTD/svg11.dtd"><svg t="1723451907801" class="icon" viewBox="0 0 1024 1024" version="1.1" xmlns="http://www.w3.org/2000/svg" p-id="22818" xmlns:xlink="http://www.w3.org/1999/xlink" width="200" height="200"><path d="M721.771663 332.257c-31.247872-32.399347-65.408299-66.311417-91.553557-93.721038-24.90347-26.100101-45.404242-46.533139-48.181329-50.2585 1.309521 5.825109 12.259823 55.293381 18.830004 100.742779 4.944569 34.137849 8.466728 68.478899 8.66993 79.11311 0 0 121.988623 12.643648 237.339331 89.408652 0 0-62.405433-60.23795-125.126957-125.285003z m-139.734886-143.979538l-0.135467-0.587027c-0.316091-0.135468-0.248357 0.067734 0.135467 0.587027z" fill="#666666" p-id="22819"></path><path d="M846.876042 457.542003s-62.608634-38.608282-98.620453-52.56145c-32.354191-12.530758-124.630242-38.879217-138.177007-35.763461 0 0 6.096044 175.543502-8.128059 228.669401-0.203201 7.089474-8.78282 56.309388-31.970367 118.127795-21.990916 58.657494-59.176787 118.714821-98.620452 156.058738 89.634431-36.327909 155.900692-69.314283 234.088107-131.13269 91.666446-72.475195 171.344005-190.286899 141.428231-283.398333z" fill="#B4B3B3" p-id="22820"></path><path d="M582.985051 189.316047c-127.61053-103.994003-267.051903-58.499449-335.417912 19.507342-45.946113 52.425982-75.839309 126.323588-73.152534 166.896151l-3.251224 314.284958c139.46395-375.155091 433.790007-326.702827 438.37333-321.329276 9.166645 10.724523-26.55166-179.359174-26.55166-179.359175z" fill="#B4B3B3" p-id="22821"></path><path d="M541.261013 777.245667s-189.270891 101.803942-242.216166-72.068792c0 0-26.00979-179.652688 75.320016-286.107686 0 0-131.606826 71.459188-201.57587 264.432862-1.941703 0.835384-9.189223 72.74613 30.344755 131.67456 39.240464 58.454293 143.708603 108.216078 245.535124 64.008466l24.858314-7.112051s74.552366-90.153724 67.733827-94.827359z" fill="#666666" p-id="22822"></path></svg>