<svg version="1" xmlns="http://www.w3.org/2000/svg" width="426.667" height="426.667" viewBox="0 0 320.000000 320.000000"><path d="M0 160v160h320V0H0v160zM204.1 27.8c4.1 2.6 86.9 94.3 88.5 97.9.8 1.8 1.4 4.9 1.4 6.9 0 4.1-36.2 124.3-38.6 127.9-.8 1.3-2.7 3.1-4.1 4-3.8 2.5-126 30.7-129.9 29.9-1.7-.3-4.2-1.3-5.6-2.2-4.1-2.7-86.9-94.4-88.4-97.9-.8-1.8-1.4-4.9-1.4-6.9 0-3.9 36.3-124.5 38.4-127.5 3.6-5.2 5.8-5.8 67.8-20.4 63.9-15 66.2-15.4 71.9-11.7z"/><path d="M137.7 50c-30.2 7-56.9 13.6-59.3 14.5-3.1 1.2-4.9 2.6-5.6 4.4-2.3 5.8-33.7 110.2-34.6 115-1.2 6.4-4.4 2.2 37.5 48.5 40.2 44.3 46.2 50.6 48.4 50.6 3.5 0 114.4-26.1 118.3-27.9 3.5-1.5 4.4-2.6 5.8-6.7 3.2-9.2 31.7-103.9 33.2-110.4 1.8-7.8 2.5-6.6-11.6-22.1-5.6-6.3-21.2-23.6-34.7-38.4C202 40.9 198.1 37 195 37.1c-1.4 0-27.2 5.8-57.3 12.9zm47.1 5.2c.2 1.5-1 7.1-2.7 12.6-3 9.6-5.2 13.1-9.4 14.6-1 .3-14.1-1.9-29-5-34-6.9-35.3-7.2-33.8-8.7 1.6-1.6 66-16.6 70.6-16.4 3.5.2 4 .5 4.3 2.9zM227 85.1c22.1 24.3 26.6 29.9 24.5 29.9-1 0-48.9-20.7-54.7-23.6-5.1-2.6-6.8-4.8-6.8-8.9 0-3.4 4.7-19.3 6.6-22.3 3.1-4.8 4.8-3.5 30.4 24.9zm-99.6.3c19.7 4 36.2 7.8 36.9 8.5.7.7.8 1.9.1 3.5-.8 2-56.8 56.9-65.2 63.8-3.3 2.8-5.6 2.8-6.6.1-.5-1.3-7.6-73.9-7.6-77.8 0-1.9 3.5-5.5 5.3-5.5.8 0 17.5 3.3 37.1 7.4zm101.8 32.3c21.5 9.3 34.3 15.4 35 16.6.5 1 .7 2.9.4 4.2-.6 2.4-46.4 59.1-49.4 61.2-4.1 2.9-4.8.6-15.3-47.5-10.4-47.8-10.6-49.2-6.2-49.2.9 0 16.8 6.6 35.5 14.7zM75.5 105.2c.3.7 1.7 15.1 3.3 32.1 3.5 38.6 3.8 37.6-10.9 40.2-11.2 2-12.6 1.9-14.4-.8-1.3-2.1-.7-4.7 9.2-37.5 5.8-19.4 11-35.2 11.5-35.2s1.1.6 1.3 1.2zm102.4 2.2c1.3 1.5 21.1 90.5 21.1 94.6 0 2.9-1.6 5-3.9 5-3.5 0-88.7-27.3-90.5-29-1.2-1.1-1.6-2.5-1.2-3.8.4-1.2 5.5-6.7 11.4-12.3 5.9-5.6 21.4-20.5 34.4-33.1 14.4-13.9 24.4-22.8 25.6-22.8 1.1 0 2.5.6 3.1 1.4zm84.1 56.8c0 2.8-20.4 68.5-21.8 70-.8 1-2.2 1.8-3.1 1.8-2.2 0-16.7-14.9-17.4-17.9-.3-1.3-.1-3.4.4-4.8 1.1-3 39.6-50.3 41-50.3.5 0 .9.5.9 1.2zM81.5 188.4c1.8.8 4 2.5 4.9 3.8 2.1 3.2 20.8 54.9 20.1 55.6-.3.3-1.7-.5-3.1-1.9-5.7-5.3-44.9-49.1-45.6-50.9-.9-2.5 1.3-4.7 5.5-5.5 2.8-.5 11.6-2 14-2.4.4 0 2.3.5 4.2 1.3zM144 203c45.2 14.1 46.6 14.6 47.5 16.7.9 2.4-1.1 4-31.5 25.7-28.3 20.2-30.9 21.6-34.3 17.8-1.7-1.9-25.7-66.5-25.7-69.2 0-2.2.9-3 3.4-3 1.2 0 19.4 5.4 40.6 12zm67.8 26.4c2.5 1.3 15.2 13.8 15.2 14.9 0 2-1.6 3.8-4.3 4.6-5.2 1.7-63.6 15.1-65.7 15.1-1.1 0-2-.3-2-.8 0-.4 10.9-8.5 24.1-18 25.4-18.1 26.9-18.8 32.7-15.8z"/></svg>